<?xml version="1.0" encoding="iso-8859-1"?>
<!-- Uploaded to: SVG Repo, www.svgrepo.com, Generator: SVG Repo Mixer Tools -->
<svg height="800px" width="800px" version="1.1" id="Layer_1" xmlns="http://www.w3.org/2000/svg"
	 viewBox="0 0 392.533 392.533" xml:space="preserve">
<g>
	<path style="fill:#FFC10D;" d="M295.046,156.057c-22.497,0-43.895,7.758-61.22,21.851c13.77,24.63,36.008,40.727,61.22,40.727
		c25.083,0,47.386-16.097,61.091-40.663C338.941,163.879,317.479,156.057,295.046,156.057z"/>
	<path style="fill:#FFC10D;" d="M295.046,95.483c9.051,0,16.291-7.37,16.291-16.291c0-9.051-7.37-16.291-16.291-16.291
		c-9.051,0-16.291,7.37-16.291,16.291C278.691,88.178,286.061,95.483,295.046,95.483z"/>
</g>
<g>
	<path style="fill:#194F82;" d="M295.046,0c-53.786,0-97.487,53.915-97.487,120.242s43.766,120.242,97.487,120.242
		s97.487-53.915,97.487-120.242S348.832,0,295.046,0z M295.046,218.699c-25.083,0-47.451-16.097-61.22-40.727
		c17.325-14.158,38.723-21.85,61.22-21.85s43.83,7.822,61.091,21.915C342.368,202.602,320.129,218.699,295.046,218.699z
		 M295.046,21.786c41.697,0,75.636,44.154,75.636,98.457c0,13.123-2.004,25.665-5.624,37.107
		c-20.234-14.933-44.606-23.079-70.012-23.079c-25.471,0-49.778,8.21-70.012,23.079c-3.62-11.442-5.624-23.984-5.624-37.107
		C219.345,66.004,253.285,21.786,295.046,21.786z"/>
	<path style="fill:#194F82;" d="M295.046,117.269c21.01,0,38.141-17.067,38.141-38.141c0-21.01-17.067-38.141-38.141-38.141
		c-21.01,0-38.141,17.067-38.141,38.141S273.972,117.269,295.046,117.269z M295.046,62.836c9.051,0,16.291,7.37,16.291,16.291
		c0,9.051-7.37,16.291-16.291,16.291c-9.051,0-16.291-7.37-16.291-16.291C278.691,70.141,286.061,62.836,295.046,62.836z"/>
</g>
<path style="fill:#FFFFFF;" d="M97.422,173.834c-41.697,0-75.636,44.154-75.636,98.457c0,13.123,2.004,25.665,5.624,37.172
	c20.234-14.933,44.606-23.079,70.012-23.079c25.471,0,49.778,8.21,70.012,23.079c3.62-11.442,5.624-24.048,5.624-37.172
	C173.188,218.053,139.184,173.834,97.422,173.834z"/>
<path style="fill:#56ACE0;" d="M97.422,308.17c-22.497,0-43.895,7.758-61.22,21.85c13.77,24.63,36.008,40.727,61.22,40.727
	c25.083,0,47.386-16.097,61.091-40.663C141.253,315.992,119.919,308.17,97.422,308.17z"/>
<path style="fill:#194F82;" d="M97.422,152.048C43.701,152.048,0,205.964,0,272.291s43.766,120.242,97.422,120.242
	c53.786,0,97.487-53.915,97.487-120.242S151.208,152.048,97.422,152.048z M97.422,370.747c-25.083,0-47.451-16.097-61.22-40.727
	c17.325-14.158,38.723-21.85,61.22-21.85s43.83,7.887,61.091,21.915C144.808,354.651,122.57,370.747,97.422,370.747z
	 M167.499,309.463c-20.234-14.933-44.606-23.079-70.012-23.079c-25.471,0-49.778,8.21-70.012,23.079
	c-3.62-11.507-5.624-24.048-5.624-37.172c0-54.238,33.939-98.457,75.636-98.457s75.636,44.154,75.636,98.457
	C173.188,285.414,171.184,297.956,167.499,309.463z"/>
<path style="fill:#FFC10D;" d="M97.422,214.885c-9.051,0-16.291,7.37-16.291,16.291c0,9.051,7.37,16.291,16.291,16.291
	c9.05,0,16.291-7.37,16.291-16.291C113.842,222.255,106.473,214.885,97.422,214.885z"/>
<g>
	<path style="fill:#194F82;" d="M97.422,193.099c-21.01,0-38.141,17.067-38.141,38.141c0,21.01,17.067,38.141,38.141,38.141
		c21.01,0,38.141-17.067,38.141-38.141S118.562,193.099,97.422,193.099z M97.422,247.596c-9.051,0-16.291-7.37-16.291-16.291
		c0-9.051,7.37-16.291,16.291-16.291c9.05,0,16.291,7.37,16.291,16.291C113.842,240.226,106.473,247.596,97.422,247.596z"/>
	<path style="fill:#194F82;" d="M35.168,119.855c6.012,0,10.925-4.848,10.925-10.925V46.028h86.497
		c6.012,0,10.925-4.848,10.925-10.925s-4.848-10.925-10.925-10.925H35.168c-6.012,0-10.925,4.848-10.925,10.925v73.826
		C24.242,115.006,29.156,119.855,35.168,119.855z"/>
	<path style="fill:#194F82;" d="M357.366,273.778c-6.012,0-10.925,4.848-10.925,10.925v61.802h-84.945
		c-6.012,0-10.925,4.848-10.925,10.925s4.848,10.925,10.925,10.925h95.871c6.012,0,10.925-4.848,10.925-10.925v-72.792
		C368.291,278.626,363.378,273.778,357.366,273.778z"/>
</g>
</svg>